# xmcd
#
# Track frame offsets: 
#        150
#        9730
#        22647
#        38262
#        54107
#        70142
#        86620
#        101317
#        113345
#        129082
#        145875
#        185860
#        203205
#        218010
#        232167
#        248077
#        263000
#        287577
#        301302
#        316695
#
# Disc length: 4500 seconds
#
# Revision: 0
# Processed by: cddbd v1.5.2PL0 Copyright (c) Steve Scherf et al.
# Submitted via: ExactAudioCopyFreeDBPlugin 1.0
#
DISCID=f9119214
DTITLE=Bobby 'Blue' Bland - The Anthology [CD2]
DYEAR=2001
DGENRE=Blues
TTITLE0=Poverty
TTITLE1=You're All I Need
TTITLE2=That Did It
TTITLE3=Save Your Love For Me
TTITLE4=Rockin' In The Same Old Boat
TTITLE5=Ask Me 'bout Nothing (But The Blues)
TTITLE6=Chains Of Love
TTITLE7=If You Got A Heart
TTITLE8=Do What You Set Out To Do
TTITLE9=Goin' Down Slow (Single Edit)
TTITLE10=This Time I'm Gone For Good (Live)
TTITLE11=Ain't No Love In The Heart Of The City
TTITLE12=I Wouldn't Treat A Dog (The Way You Treated Me)
TTITLE13=Yolanda (Single Edit)
TTITLE14=I Take It On Home
TTITLE15=It Ain't The Real Thing (Single Edit)
TTITLE16=Let The Good Times Roll
TTITLE17=The Soul Of A Man (Single Edit)
TTITLE18=Soon As The Weather Breaks (Single Edit)
TTITLE19=Recess In Heaven
EXTD=
EXTT0=
EXTT1=
EXTT2=
EXTT3=
EXTT4=
EXTT5=
EXTT6=
EXTT7=
EXTT8=
EXTT9=
EXTT10=
EXTT11=
EXTT12=
EXTT13=
EXTT14=
EXTT15=
EXTT16=
EXTT17=
EXTT18=
EXTT19=
PLAYORDER=
